# Blender v2.91.0 OBJ File: ''
# www.blender.org
o Cone
v 0.000000 -1.000000 -1.000000
v 0.049068 -1.000000 -0.998795
v 0.098017 -1.000000 -0.995185
v 0.146730 -1.000000 -0.989177
v 0.195090 -1.000000 -0.980785
v 0.242980 -1.000000 -0.970031
v 0.290285 -1.000000 -0.956940
v 0.336890 -1.000000 -0.941544
v 0.382683 -1.000000 -0.923880
v 0.427555 -1.000000 -0.903989
v 0.471397 -1.000000 -0.881921
v 0.514103 -1.000000 -0.857729
v 0.555570 -1.000000 -0.831470
v 0.595699 -1.000000 -0.803208
v 0.634393 -1.000000 -0.773010
v 0.671559 -1.000000 -0.740951
v 0.707107 -1.000000 -0.707107
v 0.740951 -1.000000 -0.671559
v 0.773011 -1.000000 -0.634393
v 0.803208 -1.000000 -0.595699
v 0.831470 -1.000000 -0.555570
v 0.857729 -1.000000 -0.514103
v 0.881921 -1.000000 -0.471397
v 0.903989 -1.000000 -0.427555
v 0.923880 -1.000000 -0.382683
v 0.941544 -1.000000 -0.336890
v 0.956940 -1.000000 -0.290284
v 0.970031 -1.000000 -0.242980
v 0.980785 -1.000000 -0.195090
v 0.989177 -1.000000 -0.146730
v 0.995185 -1.000000 -0.098017
v 0.998795 -1.000000 -0.049067
v 1.000000 -1.000000 0.000000
v 0.998795 -1.000000 0.049068
v 0.995185 -1.000000 0.098018
v 0.989176 -1.000000 0.146731
v 0.980785 -1.000000 0.195091
v 0.970031 -1.000000 0.242981
v 0.956940 -1.000000 0.290285
v 0.941544 -1.000000 0.336890
v 0.923879 -1.000000 0.382684
v 0.903989 -1.000000 0.427556
v 0.881921 -1.000000 0.471397
v 0.857728 -1.000000 0.514103
v 0.831470 -1.000000 0.555570
v 0.803208 -1.000000 0.595699
v 0.773010 -1.000000 0.634393
v 0.740951 -1.000000 0.671559
v 0.707107 -1.000000 0.707107
v 0.671559 -1.000000 0.740951
v 0.634394 -1.000000 0.773010
v 0.595700 -1.000000 0.803207
v 0.555571 -1.000000 0.831469
v 0.514103 -1.000000 0.857728
v 0.471397 -1.000000 0.881921
v 0.427556 -1.000000 0.903989
v 0.382684 -1.000000 0.923879
v 0.336891 -1.000000 0.941544
v 0.290286 -1.000000 0.956940
v 0.242981 -1.000000 0.970031
v 0.195092 -1.000000 0.980785
v 0.146732 -1.000000 0.989176
v 0.098019 -1.000000 0.995185
v 0.049069 -1.000000 0.998795
v 0.000002 -1.000000 1.000000
v -0.049066 -1.000000 0.998796
v -0.098015 -1.000000 0.995185
v -0.146728 -1.000000 0.989177
v -0.195088 -1.000000 0.980786
v -0.242978 -1.000000 0.970032
v -0.290282 -1.000000 0.956941
v -0.336887 -1.000000 0.941545
v -0.382681 -1.000000 0.923881
v -0.427553 -1.000000 0.903990
v -0.471394 -1.000000 0.881923
v -0.514100 -1.000000 0.857730
v -0.555568 -1.000000 0.831471
v -0.595697 -1.000000 0.803209
v -0.634391 -1.000000 0.773012
v -0.671557 -1.000000 0.740953
v -0.707104 -1.000000 0.707109
v -0.740949 -1.000000 0.671562
v -0.773008 -1.000000 0.634396
v -0.803206 -1.000000 0.595702
v -0.831468 -1.000000 0.555573
v -0.857727 -1.000000 0.514105
v -0.881920 -1.000000 0.471399
v -0.903988 -1.000000 0.427557
v -0.923879 -1.000000 0.382686
v -0.941543 -1.000000 0.336892
v -0.956940 -1.000000 0.290287
v -0.970031 -1.000000 0.242982
v -0.980785 -1.000000 0.195092
v -0.989176 -1.000000 0.146732
v -0.995185 -1.000000 0.098019
v -0.998795 -1.000000 0.049069
v -1.000000 -1.000000 0.000001
v -0.998796 -1.000000 -0.049066
v -0.995185 -1.000000 -0.098016
v -0.989177 -1.000000 -0.146729
v -0.980785 -1.000000 -0.195089
v -0.970031 -1.000000 -0.242979
v -0.956941 -1.000000 -0.290284
v -0.941544 -1.000000 -0.336889
v -0.923880 -1.000000 -0.382683
v -0.903989 -1.000000 -0.427555
v -0.881921 -1.000000 -0.471397
v -0.857729 -1.000000 -0.514103
v -0.831469 -1.000000 -0.555570
v -0.803207 -1.000000 -0.595700
v -0.773010 -1.000000 -0.634394
v -0.740951 -1.000000 -0.671559
v -0.707106 -1.000000 -0.707107
v -0.671558 -1.000000 -0.740952
v -0.634392 -1.000000 -0.773011
v -0.595698 -1.000000 -0.803208
v -0.555569 -1.000000 -0.831470
v -0.514101 -1.000000 -0.857729
v -0.471395 -1.000000 -0.881922
v -0.427553 -1.000000 -0.903990
v -0.382682 -1.000000 -0.923880
v -0.336888 -1.000000 -0.941545
v -0.290283 -1.000000 -0.956941
v -0.242978 -1.000000 -0.970032
v -0.195088 -1.000000 -0.980786
v -0.146728 -1.000000 -0.989177
v -0.098014 -1.000000 -0.995185
v -0.049065 -1.000000 -0.998796
v 0.000000 0.000000 0.000000
vt 0.250000 0.490000
vt 0.250000 0.250000
vt 0.261776 0.489711
vt 0.273524 0.488844
vt 0.285215 0.487402
vt 0.296822 0.485388
vt 0.308315 0.482808
vt 0.319668 0.479666
vt 0.330854 0.475971
vt 0.341844 0.471731
vt 0.352613 0.466957
vt 0.363135 0.461661
vt 0.373385 0.455855
vt 0.383337 0.449553
vt 0.392968 0.442770
vt 0.402254 0.435522
vt 0.411174 0.427828
vt 0.419706 0.419706
vt 0.427828 0.411174
vt 0.435523 0.402254
vt 0.442770 0.392968
vt 0.449553 0.383337
vt 0.455855 0.373385
vt 0.461661 0.363135
vt 0.466957 0.352613
vt 0.471731 0.341844
vt 0.475971 0.330853
vt 0.479666 0.319668
vt 0.482808 0.308315
vt 0.485388 0.296822
vt 0.487402 0.285215
vt 0.488844 0.273524
vt 0.489711 0.261776
vt 0.490000 0.250000
vt 0.489711 0.238224
vt 0.488844 0.226476
vt 0.487402 0.214785
vt 0.485388 0.203178
vt 0.482807 0.191685
vt 0.479666 0.180332
vt 0.475971 0.169146
vt 0.471731 0.158156
vt 0.466957 0.147387
vt 0.461661 0.136865
vt 0.455855 0.126615
vt 0.449553 0.116663
vt 0.442770 0.107032
vt 0.435522 0.097746
vt 0.427828 0.088826
vt 0.419706 0.080294
vt 0.411174 0.072172
vt 0.402254 0.064478
vt 0.392968 0.057230
vt 0.383337 0.050447
vt 0.373385 0.044145
vt 0.363135 0.038339
vt 0.352613 0.033043
vt 0.341844 0.028269
vt 0.330854 0.024030
vt 0.319669 0.020334
vt 0.308316 0.017193
vt 0.296822 0.014612
vt 0.285216 0.012598
vt 0.273524 0.011156
vt 0.261777 0.010289
vt 0.250000 0.010000
vt 0.238224 0.010289
vt 0.226476 0.011156
vt 0.214785 0.012598
vt 0.203179 0.014611
vt 0.191685 0.017192
vt 0.180332 0.020334
vt 0.169147 0.024029
vt 0.158157 0.028269
vt 0.147387 0.033042
vt 0.136865 0.038339
vt 0.126616 0.044145
vt 0.116664 0.050447
vt 0.107033 0.057230
vt 0.097746 0.064477
vt 0.088826 0.072171
vt 0.080295 0.080294
vt 0.072172 0.088825
vt 0.064478 0.097745
vt 0.057231 0.107032
vt 0.050448 0.116663
vt 0.044145 0.126615
vt 0.038339 0.136864
vt 0.033043 0.147386
vt 0.028269 0.158155
vt 0.024030 0.169146
vt 0.020334 0.180331
vt 0.017193 0.191684
vt 0.014612 0.203178
vt 0.012598 0.214784
vt 0.011156 0.226475
vt 0.010289 0.238223
vt 0.010000 0.250000
vt 0.010289 0.261776
vt 0.011156 0.273524
vt 0.012598 0.285215
vt 0.014611 0.296821
vt 0.017192 0.308315
vt 0.020334 0.319668
vt 0.024029 0.330853
vt 0.028269 0.341844
vt 0.033043 0.352613
vt 0.038339 0.363135
vt 0.044145 0.373385
vt 0.050447 0.383337
vt 0.057230 0.392968
vt 0.064478 0.402254
vt 0.072172 0.411174
vt 0.080295 0.419706
vt 0.088826 0.427828
vt 0.097746 0.435523
vt 0.107032 0.442770
vt 0.116663 0.449553
vt 0.126616 0.455855
vt 0.136865 0.461661
vt 0.147387 0.466958
vt 0.158156 0.471731
vt 0.169147 0.475971
vt 0.180332 0.479666
vt 0.191685 0.482808
vt 0.203179 0.485389
vt 0.214785 0.487402
vt 0.226477 0.488844
vt 0.750000 0.490000
vt 0.761776 0.489711
vt 0.773524 0.488844
vt 0.785215 0.487402
vt 0.796822 0.485388
vt 0.808315 0.482808
vt 0.819668 0.479666
vt 0.830854 0.475971
vt 0.841844 0.471731
vt 0.852613 0.466957
vt 0.863135 0.461661
vt 0.873385 0.455855
vt 0.883337 0.449553
vt 0.892968 0.442770
vt 0.902254 0.435522
vt 0.911174 0.427828
vt 0.919706 0.419706
vt 0.927828 0.411174
vt 0.935523 0.402254
vt 0.942770 0.392968
vt 0.949553 0.383337
vt 0.955855 0.373385
vt 0.961661 0.363135
vt 0.966957 0.352613
vt 0.971731 0.341844
vt 0.975971 0.330853
vt 0.979666 0.319668
vt 0.982808 0.308315
vt 0.985389 0.296822
vt 0.987402 0.285215
vt 0.988844 0.273524
vt 0.989711 0.261776
vt 0.990000 0.250000
vt 0.989711 0.238224
vt 0.988844 0.226476
vt 0.987402 0.214785
vt 0.985388 0.203178
vt 0.982807 0.191685
vt 0.979666 0.180332
vt 0.975971 0.169146
vt 0.971731 0.158156
vt 0.966957 0.147387
vt 0.961661 0.136865
vt 0.955855 0.126615
vt 0.949553 0.116663
vt 0.942770 0.107032
vt 0.935522 0.097746
vt 0.927828 0.088826
vt 0.919706 0.080294
vt 0.911174 0.072172
vt 0.902254 0.064478
vt 0.892968 0.057230
vt 0.883337 0.050447
vt 0.873385 0.044145
vt 0.863135 0.038339
vt 0.852613 0.033043
vt 0.841844 0.028269
vt 0.830854 0.024030
vt 0.819669 0.020334
vt 0.808316 0.017193
vt 0.796822 0.014612
vt 0.785216 0.012598
vt 0.773525 0.011156
vt 0.761777 0.010289
vt 0.750000 0.010000
vt 0.738224 0.010289
vt 0.726476 0.011156
vt 0.714785 0.012598
vt 0.703179 0.014611
vt 0.691685 0.017192
vt 0.680332 0.020334
vt 0.669147 0.024029
vt 0.658157 0.028269
vt 0.647387 0.033042
vt 0.636865 0.038339
vt 0.626616 0.044145
vt 0.616664 0.050447
vt 0.607033 0.057230
vt 0.597746 0.064477
vt 0.588826 0.072171
vt 0.580295 0.080294
vt 0.572172 0.088825
vt 0.564478 0.097745
vt 0.557231 0.107032
vt 0.550448 0.116663
vt 0.544145 0.126615
vt 0.538339 0.136864
vt 0.533043 0.147386
vt 0.528269 0.158155
vt 0.524030 0.169146
vt 0.520334 0.180331
vt 0.517193 0.191684
vt 0.514612 0.203178
vt 0.512598 0.214784
vt 0.511156 0.226475
vt 0.510289 0.238223
vt 0.510000 0.250000
vt 0.510289 0.261776
vt 0.511156 0.273524
vt 0.512598 0.285215
vt 0.514611 0.296821
vt 0.517192 0.308315
vt 0.520334 0.319668
vt 0.524029 0.330853
vt 0.528269 0.341844
vt 0.533043 0.352613
vt 0.538339 0.363135
vt 0.544145 0.373385
vt 0.550447 0.383337
vt 0.557230 0.392968
vt 0.564478 0.402254
vt 0.572172 0.411174
vt 0.580294 0.419706
vt 0.588826 0.427828
vt 0.597746 0.435523
vt 0.607032 0.442770
vt 0.616663 0.449553
vt 0.626616 0.455855
vt 0.636865 0.461661
vt 0.647387 0.466958
vt 0.658156 0.471731
vt 0.669147 0.475971
vt 0.680332 0.479666
vt 0.691685 0.482808
vt 0.703179 0.485389
vt 0.714785 0.487402
vt 0.726477 0.488844
vt 0.738224 0.489711
vt 0.238224 0.489711
vn 0.0174 0.7070 -0.7070
vn 0.0520 0.7070 -0.7053
vn 0.0866 0.7070 -0.7019
vn 0.1209 0.7070 -0.6968
vn 0.1550 0.7070 -0.6900
vn 0.1886 0.7070 -0.6816
vn 0.2218 0.7070 -0.6715
vn 0.2545 0.7070 -0.6598
vn 0.2866 0.7070 -0.6465
vn 0.3180 0.7070 -0.6317
vn 0.3486 0.7070 -0.6153
vn 0.3784 0.7070 -0.5975
vn 0.4072 0.7070 -0.5782
vn 0.4351 0.7070 -0.5575
vn 0.4619 0.7070 -0.5355
vn 0.4877 0.7070 -0.5122
vn 0.5122 0.7070 -0.4877
vn 0.5355 0.7070 -0.4619
vn 0.5575 0.7070 -0.4351
vn 0.5782 0.7070 -0.4072
vn 0.5975 0.7070 -0.3784
vn 0.6153 0.7070 -0.3486
vn 0.6317 0.7070 -0.3180
vn 0.6465 0.7070 -0.2866
vn 0.6598 0.7070 -0.2545
vn 0.6715 0.7070 -0.2218
vn 0.6816 0.7070 -0.1886
vn 0.6900 0.7070 -0.1550
vn 0.6968 0.7070 -0.1209
vn 0.7019 0.7070 -0.0866
vn 0.7053 0.7070 -0.0520
vn 0.7070 0.7070 -0.0174
vn 0.7070 0.7070 0.0174
vn 0.7053 0.7070 0.0520
vn 0.7019 0.7070 0.0866
vn 0.6968 0.7070 0.1209
vn 0.6900 0.7070 0.1550
vn 0.6816 0.7070 0.1886
vn 0.6715 0.7070 0.2218
vn 0.6598 0.7070 0.2545
vn 0.6465 0.7070 0.2866
vn 0.6317 0.7070 0.3180
vn 0.6153 0.7070 0.3486
vn 0.5975 0.7070 0.3784
vn 0.5782 0.7070 0.4072
vn 0.5575 0.7070 0.4351
vn 0.5355 0.7070 0.4619
vn 0.5122 0.7070 0.4877
vn 0.4877 0.7070 0.5122
vn 0.4619 0.7070 0.5355
vn 0.4351 0.7070 0.5575
vn 0.4072 0.7070 0.5782
vn 0.3784 0.7070 0.5975
vn 0.3486 0.7070 0.6153
vn 0.3180 0.7070 0.6317
vn 0.2866 0.7070 0.6465
vn 0.2545 0.7070 0.6598
vn 0.2218 0.7070 0.6715
vn 0.1886 0.7070 0.6816
vn 0.1550 0.7070 0.6900
vn 0.1209 0.7070 0.6968
vn 0.0866 0.7070 0.7019
vn 0.0520 0.7070 0.7053
vn 0.0174 0.7070 0.7070
vn -0.0174 0.7070 0.7070
vn -0.0520 0.7070 0.7053
vn -0.0866 0.7070 0.7019
vn -0.1209 0.7070 0.6968
vn -0.1550 0.7070 0.6900
vn -0.1886 0.7070 0.6816
vn -0.2218 0.7070 0.6715
vn -0.2545 0.7070 0.6598
vn -0.2866 0.7070 0.6465
vn -0.3180 0.7070 0.6317
vn -0.3486 0.7070 0.6153
vn -0.3784 0.7070 0.5975
vn -0.4072 0.7070 0.5782
vn -0.4351 0.7070 0.5575
vn -0.4619 0.7070 0.5355
vn -0.4877 0.7070 0.5122
vn -0.5122 0.7070 0.4877
vn -0.5355 0.7070 0.4619
vn -0.5575 0.7070 0.4351
vn -0.5782 0.7070 0.4072
vn -0.5975 0.7070 0.3784
vn -0.6153 0.7070 0.3486
vn -0.6317 0.7070 0.3180
vn -0.6465 0.7070 0.2866
vn -0.6598 0.7070 0.2545
vn -0.6715 0.7070 0.2218
vn -0.6816 0.7070 0.1886
vn -0.6900 0.7070 0.1550
vn -0.6968 0.7070 0.1209
vn -0.7019 0.7070 0.0866
vn -0.7053 0.7070 0.0520
vn -0.7070 0.7070 0.0174
vn -0.7070 0.7070 -0.0174
vn -0.7053 0.7070 -0.0520
vn -0.7019 0.7070 -0.0866
vn -0.6968 0.7070 -0.1209
vn -0.6900 0.7070 -0.1550
vn -0.6816 0.7070 -0.1886
vn -0.6715 0.7070 -0.2218
vn -0.6598 0.7070 -0.2545
vn -0.6465 0.7070 -0.2866
vn -0.6317 0.7070 -0.3180
vn -0.6153 0.7070 -0.3486
vn -0.5975 0.7070 -0.3784
vn -0.5782 0.7070 -0.4072
vn -0.5575 0.7070 -0.4351
vn -0.5355 0.7070 -0.4619
vn -0.5122 0.7070 -0.4877
vn -0.4877 0.7070 -0.5122
vn -0.4619 0.7070 -0.5355
vn -0.4351 0.7070 -0.5575
vn -0.4072 0.7070 -0.5782
vn -0.3784 0.7070 -0.5975
vn -0.3486 0.7070 -0.6153
vn -0.3180 0.7070 -0.6317
vn -0.2866 0.7070 -0.6465
vn -0.2545 0.7070 -0.6598
vn -0.2218 0.7070 -0.6715
vn -0.1886 0.7070 -0.6816
vn -0.1550 0.7070 -0.6900
vn -0.1209 0.7070 -0.6968
vn -0.0866 0.7070 -0.7019
vn 0.0000 -1.0000 -0.0000
vn -0.0520 0.7070 -0.7053
vn -0.0174 0.7070 -0.7070
s off
f 1/1/1 129/2/1 2/3/1
f 2/3/2 129/2/2 3/4/2
f 3/4/3 129/2/3 4/5/3
f 4/5/4 129/2/4 5/6/4
f 5/6/5 129/2/5 6/7/5
f 6/7/6 129/2/6 7/8/6
f 7/8/7 129/2/7 8/9/7
f 8/9/8 129/2/8 9/10/8
f 9/10/9 129/2/9 10/11/9
f 10/11/10 129/2/10 11/12/10
f 11/12/11 129/2/11 12/13/11
f 12/13/12 129/2/12 13/14/12
f 13/14/13 129/2/13 14/15/13
f 14/15/14 129/2/14 15/16/14
f 15/16/15 129/2/15 16/17/15
f 16/17/16 129/2/16 17/18/16
f 17/18/17 129/2/17 18/19/17
f 18/19/18 129/2/18 19/20/18
f 19/20/19 129/2/19 20/21/19
f 20/21/20 129/2/20 21/22/20
f 21/22/21 129/2/21 22/23/21
f 22/23/22 129/2/22 23/24/22
f 23/24/23 129/2/23 24/25/23
f 24/25/24 129/2/24 25/26/24
f 25/26/25 129/2/25 26/27/25
f 26/27/26 129/2/26 27/28/26
f 27/28/27 129/2/27 28/29/27
f 28/29/28 129/2/28 29/30/28
f 29/30/29 129/2/29 30/31/29
f 30/31/30 129/2/30 31/32/30
f 31/32/31 129/2/31 32/33/31
f 32/33/32 129/2/32 33/34/32
f 33/34/33 129/2/33 34/35/33
f 34/35/34 129/2/34 35/36/34
f 35/36/35 129/2/35 36/37/35
f 36/37/36 129/2/36 37/38/36
f 37/38/37 129/2/37 38/39/37
f 38/39/38 129/2/38 39/40/38
f 39/40/39 129/2/39 40/41/39
f 40/41/40 129/2/40 41/42/40
f 41/42/41 129/2/41 42/43/41
f 42/43/42 129/2/42 43/44/42
f 43/44/43 129/2/43 44/45/43
f 44/45/44 129/2/44 45/46/44
f 45/46/45 129/2/45 46/47/45
f 46/47/46 129/2/46 47/48/46
f 47/48/47 129/2/47 48/49/47
f 48/49/48 129/2/48 49/50/48
f 49/50/49 129/2/49 50/51/49
f 50/51/50 129/2/50 51/52/50
f 51/52/51 129/2/51 52/53/51
f 52/53/52 129/2/52 53/54/52
f 53/54/53 129/2/53 54/55/53
f 54/55/54 129/2/54 55/56/54
f 55/56/55 129/2/55 56/57/55
f 56/57/56 129/2/56 57/58/56
f 57/58/57 129/2/57 58/59/57
f 58/59/58 129/2/58 59/60/58
f 59/60/59 129/2/59 60/61/59
f 60/61/60 129/2/60 61/62/60
f 61/62/61 129/2/61 62/63/61
f 62/63/62 129/2/62 63/64/62
f 63/64/63 129/2/63 64/65/63
f 64/65/64 129/2/64 65/66/64
f 65/66/65 129/2/65 66/67/65
f 66/67/66 129/2/66 67/68/66
f 67/68/67 129/2/67 68/69/67
f 68/69/68 129/2/68 69/70/68
f 69/70/69 129/2/69 70/71/69
f 70/71/70 129/2/70 71/72/70
f 71/72/71 129/2/71 72/73/71
f 72/73/72 129/2/72 73/74/72
f 73/74/73 129/2/73 74/75/73
f 74/75/74 129/2/74 75/76/74
f 75/76/75 129/2/75 76/77/75
f 76/77/76 129/2/76 77/78/76
f 77/78/77 129/2/77 78/79/77
f 78/79/78 129/2/78 79/80/78
f 79/80/79 129/2/79 80/81/79
f 80/81/80 129/2/80 81/82/80
f 81/82/81 129/2/81 82/83/81
f 82/83/82 129/2/82 83/84/82
f 83/84/83 129/2/83 84/85/83
f 84/85/84 129/2/84 85/86/84
f 85/86/85 129/2/85 86/87/85
f 86/87/86 129/2/86 87/88/86
f 87/88/87 129/2/87 88/89/87
f 88/89/88 129/2/88 89/90/88
f 89/90/89 129/2/89 90/91/89
f 90/91/90 129/2/90 91/92/90
f 91/92/91 129/2/91 92/93/91
f 92/93/92 129/2/92 93/94/92
f 93/94/93 129/2/93 94/95/93
f 94/95/94 129/2/94 95/96/94
f 95/96/95 129/2/95 96/97/95
f 96/97/96 129/2/96 97/98/96
f 97/98/97 129/2/97 98/99/97
f 98/99/98 129/2/98 99/100/98
f 99/100/99 129/2/99 100/101/99
f 100/101/100 129/2/100 101/102/100
f 101/102/101 129/2/101 102/103/101
f 102/103/102 129/2/102 103/104/102
f 103/104/103 129/2/103 104/105/103
f 104/105/104 129/2/104 105/106/104
f 105/106/105 129/2/105 106/107/105
f 106/107/106 129/2/106 107/108/106
f 107/108/107 129/2/107 108/109/107
f 108/109/108 129/2/108 109/110/108
f 109/110/109 129/2/109 110/111/109
f 110/111/110 129/2/110 111/112/110
f 111/112/111 129/2/111 112/113/111
f 112/113/112 129/2/112 113/114/112
f 113/114/113 129/2/113 114/115/113
f 114/115/114 129/2/114 115/116/114
f 115/116/115 129/2/115 116/117/115
f 116/117/116 129/2/116 117/118/116
f 117/118/117 129/2/117 118/119/117
f 118/119/118 129/2/118 119/120/118
f 119/120/119 129/2/119 120/121/119
f 120/121/120 129/2/120 121/122/120
f 121/122/121 129/2/121 122/123/121
f 122/123/122 129/2/122 123/124/122
f 123/124/123 129/2/123 124/125/123
f 124/125/124 129/2/124 125/126/124
f 125/126/125 129/2/125 126/127/125
f 126/127/126 129/2/126 127/128/126
f 1/129/127 2/130/127 3/131/127 4/132/127 5/133/127 6/134/127 7/135/127 8/136/127 9/137/127 10/138/127 11/139/127 12/140/127 13/141/127 14/142/127 15/143/127 16/144/127 17/145/127 18/146/127 19/147/127 20/148/127 21/149/127 22/150/127 23/151/127 24/152/127 25/153/127 26/154/127 27/155/127 28/156/127 29/157/127 30/158/127 31/159/127 32/160/127 33/161/127 34/162/127 35/163/127 36/164/127 37/165/127 38/166/127 39/167/127 40/168/127 41/169/127 42/170/127 43/171/127 44/172/127 45/173/127 46/174/127 47/175/127 48/176/127 49/177/127 50/178/127 51/179/127 52/180/127 53/181/127 54/182/127 55/183/127 56/184/127 57/185/127 58/186/127 59/187/127 60/188/127 61/189/127 62/190/127 63/191/127 64/192/127 65/193/127 66/194/127 67/195/127 68/196/127 69/197/127 70/198/127 71/199/127 72/200/127 73/201/127 74/202/127 75/203/127 76/204/127 77/205/127 78/206/127 79/207/127 80/208/127 81/209/127 82/210/127 83/211/127 84/212/127 85/213/127 86/214/127 87/215/127 88/216/127 89/217/127 90/218/127 91/219/127 92/220/127 93/221/127 94/222/127 95/223/127 96/224/127 97/225/127 98/226/127 99/227/127 100/228/127 101/229/127 102/230/127 103/231/127 104/232/127 105/233/127 106/234/127 107/235/127 108/236/127 109/237/127 110/238/127 111/239/127 112/240/127 113/241/127 114/242/127 115/243/127 116/244/127 117/245/127 118/246/127 119/247/127 120/248/127 121/249/127 122/250/127 123/251/127 124/252/127 125/253/127 126/254/127 127/255/127 128/256/127
f 127/128/128 129/2/128 128/257/128
f 128/257/129 129/2/129 1/1/129
